<?xml version="1.0" encoding="UTF-8"?>
<!-- Generated by Pixelmator Pro 3.5.6 -->
<svg width="450" height="90" viewBox="0 0 450 90" xmlns="http://www.w3.org/2000/svg">
    <path id="Path" fill="#000000" stroke="none" d="M 117.341705 3.886108 C 120.328064 3.886108 122.749512 6.307556 122.749512 9.293945 L 122.749512 57.03775 C 122.749512 64.870209 126.605469 71.017487 139.382416 71.017487 L 165.552032 71.017487 C 168.538391 71.017487 170.959839 73.438965 170.959839 76.425323 L 170.959839 79.830627 C 170.959839 82.82016 168.538391 85.238464 165.552032 85.238464 L 138.538239 85.238464 C 116.96402 85.238464 108.528564 73.429443 108.528564 57.158325 L 108.528564 9.293945 C 108.528564 6.307556 110.950043 3.886108 113.936401 3.886108 Z"/>
    <path id="path1" fill="#000000" stroke="none" d="M 209.267883 3.886108 C 212.254272 3.886108 214.67572 6.307556 214.67572 9.293945 L 214.67572 58.24054 C 214.67572 66.317383 218.772827 71.017487 228.17627 71.017487 L 242.638428 71.017487 C 251.797424 71.017487 256.015137 66.317383 256.015137 58.24054 L 256.015137 9.293945 C 256.015137 6.307556 258.436646 3.886108 261.422974 3.886108 L 264.587097 3.886108 C 267.573486 3.886108 269.994934 6.307556 269.994934 9.293945 L 269.994934 59.325928 C 269.994934 76.441193 260.956482 85.238464 243.603149 85.238464 L 226.487915 85.238464 C 209.131409 85.238464 200.213562 76.441193 200.213562 59.325928 L 200.213562 9.293945 C 200.213562 6.307556 202.631836 3.886108 205.621399 3.886108 Z"/>
    <path id="path2" fill="#000000" stroke="none" d="M 325.633118 9.29425 L 325.633118 79.830933 C 325.633118 82.820465 323.211609 85.23877 320.225281 85.23877 L 316.819946 85.23877 C 313.833618 85.23877 311.412109 82.820465 311.412109 79.830933 L 311.412109 9.29425 C 311.412109 6.307861 313.833618 3.886414 316.819946 3.886414 L 320.225281 3.886414 C 323.211609 3.886414 325.633118 6.307861 325.633118 9.29425"/>
    <path id="path3" fill="#000000" stroke="none" d="M 381.363586 69.572235 C 381.363586 70.654449 381.846008 71.019409 382.928223 71.019409 L 402.57605 71.019409 C 418.364746 71.019409 424.991211 63.183746 424.991211 44.500702 C 424.991211 25.941437 418.364746 18.108948 402.57605 18.108948 L 382.928223 18.108948 C 381.846008 18.108948 381.363586 18.46756 381.363586 19.552948 Z M 402.57605 3.884827 C 426.31781 3.884827 439.215332 17.144165 439.215332 44.624481 C 439.215332 71.984192 426.438416 85.240356 402.57605 85.240356 L 373.889771 85.240356 C 369.310242 85.240356 367.142639 83.069611 367.142639 78.610687 L 367.142639 10.514496 C 367.142639 6.055603 369.310242 3.884827 373.889771 3.884827 Z"/>
    <path id="path4" fill="#000000" stroke="none" d="M 26.590698 62.562378 L 26.590698 37.747894 L 26.593872 37.747894 L 26.593872 31.848145 C 26.593872 24.253693 30.449799 18.109589 43.347351 18.109589 L 70.722931 18.109589 C 73.70929 18.109589 76.130768 15.688141 76.130768 12.701752 L 76.130768 9.293304 C 76.130768 6.306946 73.70929 3.885437 70.722931 3.885437 L 42.382568 3.885437 C 20.80838 3.885437 12.372925 15.697662 12.372925 31.96875 L 12.372925 79.83316 C 12.372925 82.819519 14.794373 85.240997 17.780762 85.240997 L 21.186035 85.240997 C 24.172394 85.240997 26.593872 82.819519 26.593872 79.83316 L 26.593872 62.562378 Z"/>
    <path id="path5" fill="#000000" stroke="none" d="M 40.571411 46.477234 C 40.571411 42.072266 44.141724 38.501953 48.546692 38.501953 C 52.95166 38.501953 56.521973 42.072266 56.521973 46.477234 C 56.521973 50.882202 52.95166 54.452515 48.546692 54.452515 C 44.141724 54.452515 40.571411 50.882202 40.571411 46.477234"/>
</svg>
